<svg width="34" height="39" viewBox="0 0 34 39" fill="none" xmlns="http://www.w3.org/2000/svg">
<path d="M11.7442 35.5413C11.4787 33.1644 11.6086 30.8216 12.0651 28.599C12.1415 28.2502 12.1181 27.887 11.9974 27.5509C11.8768 27.2149 11.6639 26.9196 11.383 26.699L7.23498 24.09C9.23453 18.33 13.5932 12.6589 18.9543 9.30217L22.585 12.7124C23.1847 13.1737 23.956 13.2442 24.6091 12.9561C26.6755 12.0017 28.9355 11.3778 31.3138 11.1125C32.3579 10.996 33.1309 10.0294 33.0144 8.98586L32.2676 2.29961C32.151 1.25609 31.5467 0.0517692 30.0965 0.213548C12.1334 2.21745 -1.12558 18.8205 0.877352 36.7535C1.03059 38.1256 2.30919 38.5308 3.37267 38.4121L10.0436 37.668C11.0877 37.5515 11.8607 36.5848 11.7442 35.5413Z" fill="white"/>
</svg>
